<mxfile host="Electron" agent="Mozilla/5.0 (Windows NT 10.0; Win64; x64) AppleWebKit/537.36 (KHTML, like Gecko) draw.io/24.7.17 Chrome/128.0.6613.36 Electron/32.0.1 Safari/537.36" version="24.7.17">
  <diagram id="C5RBs43oDa-KdzZeNtuy" name="Page-1">
    <mxGraphModel dx="724" dy="428" grid="1" gridSize="10" guides="1" tooltips="1" connect="1" arrows="1" fold="1" page="1" pageScale="1" pageWidth="827" pageHeight="1169" math="0" shadow="0">
      <root>
        <mxCell id="WIyWlLk6GJQsqaUBKTNV-0" />
        <mxCell id="WIyWlLk6GJQsqaUBKTNV-1" parent="WIyWlLk6GJQsqaUBKTNV-0" />
        <mxCell id="WIyWlLk6GJQsqaUBKTNV-2" value="" style="rounded=0;html=1;jettySize=auto;orthogonalLoop=1;fontSize=11;endArrow=classic;endFill=1;endSize=8;strokeWidth=1;shadow=0;labelBackgroundColor=none;edgeStyle=orthogonalEdgeStyle;entryX=0.5;entryY=0;entryDx=0;entryDy=0;" parent="WIyWlLk6GJQsqaUBKTNV-1" source="8HY-wy-e0iQY2jqhLhTO-0" target="mDy7WNtcr2wcbE2Tr5dx-0" edge="1">
          <mxGeometry relative="1" as="geometry">
            <mxPoint x="220" y="140" as="targetPoint" />
            <mxPoint x="220" y="90" as="sourcePoint" />
          </mxGeometry>
        </mxCell>
        <mxCell id="WIyWlLk6GJQsqaUBKTNV-7" value="&lt;font style=&quot;font-size: 10px;&quot;&gt;&lt;b&gt;Filtro Wireshark&lt;/b&gt;&lt;/font&gt;&lt;div style=&quot;font-size: 13px;&quot;&gt;&lt;font style=&quot;font-size: 10px;&quot;&gt;rtp&lt;/font&gt;&lt;/div&gt;" style="rounded=1;whiteSpace=wrap;html=1;fontSize=12;glass=0;strokeWidth=1;shadow=0;" parent="WIyWlLk6GJQsqaUBKTNV-1" vertex="1">
          <mxGeometry x="520" y="142.5" width="140" height="35" as="geometry" />
        </mxCell>
        <mxCell id="8HY-wy-e0iQY2jqhLhTO-20" value="" style="edgeStyle=orthogonalEdgeStyle;rounded=0;orthogonalLoop=1;jettySize=auto;html=1;" parent="WIyWlLk6GJQsqaUBKTNV-1" source="mDy7WNtcr2wcbE2Tr5dx-0" target="8HY-wy-e0iQY2jqhLhTO-11" edge="1">
          <mxGeometry relative="1" as="geometry" />
        </mxCell>
        <mxCell id="mDy7WNtcr2wcbE2Tr5dx-0" value="&lt;font style=&quot;font-size: 11px;&quot;&gt;Captura de tráfico de red mediante el software de Wireshark&lt;/font&gt;" style="rounded=1;whiteSpace=wrap;html=1;" parent="WIyWlLk6GJQsqaUBKTNV-1" vertex="1">
          <mxGeometry x="130" y="140" width="180" height="40" as="geometry" />
        </mxCell>
        <mxCell id="8HY-wy-e0iQY2jqhLhTO-5" style="edgeStyle=orthogonalEdgeStyle;rounded=0;orthogonalLoop=1;jettySize=auto;html=1;entryX=0;entryY=0.5;entryDx=0;entryDy=0;" parent="WIyWlLk6GJQsqaUBKTNV-1" source="8HY-wy-e0iQY2jqhLhTO-1" target="8HY-wy-e0iQY2jqhLhTO-4" edge="1">
          <mxGeometry relative="1" as="geometry" />
        </mxCell>
        <mxCell id="xmCIeXyWxXK9kLhbiFmZ-0" style="edgeStyle=orthogonalEdgeStyle;rounded=0;orthogonalLoop=1;jettySize=auto;html=1;exitX=0;exitY=0.5;exitDx=0;exitDy=0;entryX=0.5;entryY=0;entryDx=0;entryDy=0;" parent="WIyWlLk6GJQsqaUBKTNV-1" source="8HY-wy-e0iQY2jqhLhTO-1" target="8HY-wy-e0iQY2jqhLhTO-15" edge="1">
          <mxGeometry relative="1" as="geometry">
            <Array as="points">
              <mxPoint x="110" y="265" />
              <mxPoint x="110" y="440" />
              <mxPoint x="220" y="440" />
            </Array>
          </mxGeometry>
        </mxCell>
        <mxCell id="8HY-wy-e0iQY2jqhLhTO-1" value="&lt;font style=&quot;font-size: 11px;&quot;&gt;Tráfico&lt;br&gt;RTP&lt;br&gt;existente&lt;/font&gt;" style="rhombus;whiteSpace=wrap;html=1;" parent="WIyWlLk6GJQsqaUBKTNV-1" vertex="1">
          <mxGeometry x="170" y="220" width="100" height="90" as="geometry" />
        </mxCell>
        <mxCell id="8HY-wy-e0iQY2jqhLhTO-27" value="" style="edgeStyle=orthogonalEdgeStyle;rounded=0;orthogonalLoop=1;jettySize=auto;html=1;" parent="WIyWlLk6GJQsqaUBKTNV-1" source="8HY-wy-e0iQY2jqhLhTO-4" target="8HY-wy-e0iQY2jqhLhTO-26" edge="1">
          <mxGeometry relative="1" as="geometry" />
        </mxCell>
        <mxCell id="8HY-wy-e0iQY2jqhLhTO-4" value="&lt;font style=&quot;font-size: 11px;&quot;&gt;Análisis de paquetes mediante la herramienta &quot;Secuencias RTP&quot; de Wireshark&lt;/font&gt;" style="rounded=1;whiteSpace=wrap;html=1;" parent="WIyWlLk6GJQsqaUBKTNV-1" vertex="1">
          <mxGeometry x="300" y="242" width="190" height="46" as="geometry" />
        </mxCell>
        <mxCell id="8HY-wy-e0iQY2jqhLhTO-8" value="&lt;font style=&quot;font-size: 11px;&quot;&gt;Si&lt;/font&gt;" style="text;html=1;align=center;verticalAlign=middle;whiteSpace=wrap;rounded=0;" parent="WIyWlLk6GJQsqaUBKTNV-1" vertex="1">
          <mxGeometry x="270" y="235" width="20" height="30" as="geometry" />
        </mxCell>
        <mxCell id="8HY-wy-e0iQY2jqhLhTO-10" value="&lt;font style=&quot;font-size: 11px;&quot;&gt;No&lt;/font&gt;" style="text;html=1;align=center;verticalAlign=middle;whiteSpace=wrap;rounded=0;" parent="WIyWlLk6GJQsqaUBKTNV-1" vertex="1">
          <mxGeometry x="140" y="235" width="20" height="30" as="geometry" />
        </mxCell>
        <mxCell id="8HY-wy-e0iQY2jqhLhTO-12" value="" style="edgeStyle=orthogonalEdgeStyle;rounded=0;orthogonalLoop=1;jettySize=auto;html=1;dashed=1;endArrow=none;endFill=0;" parent="WIyWlLk6GJQsqaUBKTNV-1" source="8HY-wy-e0iQY2jqhLhTO-11" target="WIyWlLk6GJQsqaUBKTNV-7" edge="1">
          <mxGeometry relative="1" as="geometry" />
        </mxCell>
        <mxCell id="8HY-wy-e0iQY2jqhLhTO-21" value="" style="edgeStyle=orthogonalEdgeStyle;rounded=0;orthogonalLoop=1;jettySize=auto;html=1;" parent="WIyWlLk6GJQsqaUBKTNV-1" source="8HY-wy-e0iQY2jqhLhTO-11" target="8HY-wy-e0iQY2jqhLhTO-1" edge="1">
          <mxGeometry relative="1" as="geometry">
            <Array as="points">
              <mxPoint x="400" y="200" />
              <mxPoint x="220" y="200" />
            </Array>
          </mxGeometry>
        </mxCell>
        <mxCell id="8HY-wy-e0iQY2jqhLhTO-11" value="&lt;font style=&quot;font-size: 11px;&quot;&gt;Identificar la existencia de paquetes RTP en las capturas de tráfico&lt;/font&gt;" style="rounded=1;whiteSpace=wrap;html=1;" parent="WIyWlLk6GJQsqaUBKTNV-1" vertex="1">
          <mxGeometry x="330" y="135" width="160" height="50" as="geometry" />
        </mxCell>
        <mxCell id="8HY-wy-e0iQY2jqhLhTO-15" value="Fin" style="ellipse;whiteSpace=wrap;html=1;aspect=fixed;" parent="WIyWlLk6GJQsqaUBKTNV-1" vertex="1">
          <mxGeometry x="190" y="466" width="60" height="60" as="geometry" />
        </mxCell>
        <mxCell id="8HY-wy-e0iQY2jqhLhTO-17" value="" style="rounded=0;html=1;jettySize=auto;orthogonalLoop=1;fontSize=11;endArrow=classic;endFill=1;endSize=8;strokeWidth=1;shadow=0;labelBackgroundColor=none;edgeStyle=orthogonalEdgeStyle;entryX=0.5;entryY=0;entryDx=0;entryDy=0;" parent="WIyWlLk6GJQsqaUBKTNV-1" target="8HY-wy-e0iQY2jqhLhTO-0" edge="1">
          <mxGeometry relative="1" as="geometry">
            <mxPoint x="220" y="150" as="targetPoint" />
            <mxPoint x="220" y="90" as="sourcePoint" />
          </mxGeometry>
        </mxCell>
        <mxCell id="8HY-wy-e0iQY2jqhLhTO-0" value="&lt;font style=&quot;font-size: 12px;&quot;&gt;Inicio&lt;/font&gt;" style="ellipse;whiteSpace=wrap;html=1;aspect=fixed;" parent="WIyWlLk6GJQsqaUBKTNV-1" vertex="1">
          <mxGeometry x="190" y="60" width="60" height="60" as="geometry" />
        </mxCell>
        <mxCell id="8HY-wy-e0iQY2jqhLhTO-34" value="" style="edgeStyle=orthogonalEdgeStyle;rounded=0;orthogonalLoop=1;jettySize=auto;html=1;endArrow=none;endFill=0;dashed=1;dashPattern=1 2;" parent="WIyWlLk6GJQsqaUBKTNV-1" source="8HY-wy-e0iQY2jqhLhTO-26" target="8HY-wy-e0iQY2jqhLhTO-33" edge="1">
          <mxGeometry relative="1" as="geometry" />
        </mxCell>
        <mxCell id="8HY-wy-e0iQY2jqhLhTO-37" value="" style="edgeStyle=orthogonalEdgeStyle;rounded=0;orthogonalLoop=1;jettySize=auto;html=1;" parent="WIyWlLk6GJQsqaUBKTNV-1" source="8HY-wy-e0iQY2jqhLhTO-26" target="8HY-wy-e0iQY2jqhLhTO-36" edge="1">
          <mxGeometry relative="1" as="geometry" />
        </mxCell>
        <mxCell id="8HY-wy-e0iQY2jqhLhTO-26" value="&lt;font style=&quot;font-size: 11px;&quot;&gt;Identificar la dirección IP del servidor en conjunto con el valor dado en el parámetro &quot;Max itter&quot;&lt;/font&gt;" style="rounded=1;whiteSpace=wrap;html=1;" parent="WIyWlLk6GJQsqaUBKTNV-1" vertex="1">
          <mxGeometry x="300" y="310" width="190" height="46" as="geometry" />
        </mxCell>
        <mxCell id="8HY-wy-e0iQY2jqhLhTO-33" value="&lt;font style=&quot;font-size: 11px;&quot;&gt;Max jitter: R&lt;/font&gt;epresenta en milisegundos el valor máximo del delay&amp;nbsp;registrado durante la transmisión de paquetes RTP" style="rounded=1;whiteSpace=wrap;html=1;dashed=1;dashPattern=1 1;" parent="WIyWlLk6GJQsqaUBKTNV-1" vertex="1">
          <mxGeometry x="520" y="305" width="190" height="56" as="geometry" />
        </mxCell>
        <mxCell id="8HY-wy-e0iQY2jqhLhTO-38" style="edgeStyle=orthogonalEdgeStyle;rounded=0;orthogonalLoop=1;jettySize=auto;html=1;entryX=0.5;entryY=0;entryDx=0;entryDy=0;" parent="WIyWlLk6GJQsqaUBKTNV-1" source="8HY-wy-e0iQY2jqhLhTO-36" target="8HY-wy-e0iQY2jqhLhTO-15" edge="1">
          <mxGeometry relative="1" as="geometry">
            <Array as="points">
              <mxPoint x="390" y="441" />
              <mxPoint x="220" y="441" />
            </Array>
          </mxGeometry>
        </mxCell>
        <mxCell id="8HY-wy-e0iQY2jqhLhTO-36" value="&lt;font style=&quot;font-size: 11px;&quot;&gt;El máximo jitter registrado es asociado al valor de medición del parámetro IPDV&lt;/font&gt;" style="rounded=1;whiteSpace=wrap;html=1;" parent="WIyWlLk6GJQsqaUBKTNV-1" vertex="1">
          <mxGeometry x="300" y="381" width="190" height="49" as="geometry" />
        </mxCell>
      </root>
    </mxGraphModel>
  </diagram>
</mxfile>
